REM DIRINDEX 1\2,1\3,1\4,1\5\6,1\5\7,1\8
REM DIRNAME folder01,folder02,folder03,folder04,folder05,folder06,folder07,folder08
TITLE ""
FILE "083 Åy083ÅzUnit5 (0937 pluck_0948 affluent).mp3" MP3
  TRACK 01 AUDIO
    TITLE "0:"
    INDEX 01 00:00:00
  TRACK 02 AUDIO
    TITLE "2:cjc115_3252"
    INDEX 01 00:00:07
  TRACK 03 AUDIO
    TITLE "0:"
    INDEX 01 00:01:11
  TRACK 04 AUDIO
    TITLE "3:cjc115_3253"
    INDEX 01 00:01:15
  TRACK 05 AUDIO
    TITLE "0:"
    INDEX 01 00:02:47
  TRACK 06 AUDIO
    TITLE "4:cjc115_3254"
    INDEX 01 00:02:53
  TRACK 07 AUDIO
    TITLE "0:"
    INDEX 01 00:06:18
  TRACK 08 AUDIO
    TITLE "2:cjc115_3255"
    INDEX 01 00:07:25
  TRACK 09 AUDIO
    TITLE "0:"
    INDEX 01 00:08:46
  TRACK 10 AUDIO
    TITLE "3:cjc115_3256"
    INDEX 01 00:08:50
  TRACK 11 AUDIO
    TITLE "0:"
    INDEX 01 00:11:17
  TRACK 12 AUDIO
    TITLE "4:cjc115_3257"
    INDEX 01 00:11:25
  TRACK 13 AUDIO
    TITLE "0:"
    INDEX 01 00:15:27
  TRACK 14 AUDIO
    TITLE "2:cjc115_3258"
    INDEX 01 00:16:30
  TRACK 15 AUDIO
    TITLE "0:"
    INDEX 01 00:17:41
  TRACK 16 AUDIO
    TITLE "3:cjc115_3259"
    INDEX 01 00:17:51
  TRACK 17 AUDIO
    TITLE "0:"
    INDEX 01 00:19:24
  TRACK 18 AUDIO
    TITLE "4:cjc115_3260"
    INDEX 01 00:19:28
  TRACK 19 AUDIO
    TITLE "0:"
    INDEX 01 00:21:62
  TRACK 20 AUDIO
    TITLE "2:cjc115_3261"
    INDEX 01 00:22:70
  TRACK 21 AUDIO
    TITLE "0:"
    INDEX 01 00:24:04
  TRACK 22 AUDIO
    TITLE "3:cjc115_3262"
    INDEX 01 00:24:12
  TRACK 23 AUDIO
    TITLE "0:"
    INDEX 01 00:26:26
  TRACK 24 AUDIO
    TITLE "4:cjc115_3263"
    INDEX 01 00:26:28
  TRACK 25 AUDIO
    TITLE "0:"
    INDEX 01 00:29:48
  TRACK 26 AUDIO
    TITLE "2:cjc115_3264"
    INDEX 01 00:30:54
  TRACK 27 AUDIO
    TITLE "0:"
    INDEX 01 00:31:61
  TRACK 28 AUDIO
    TITLE "3:cjc115_3265"
    INDEX 01 00:31:71
  TRACK 29 AUDIO
    TITLE "0:"
    INDEX 01 00:34:06
  TRACK 30 AUDIO
    TITLE "4:cjc115_3266"
    INDEX 01 00:34:14
  TRACK 31 AUDIO
    TITLE "0:"
    INDEX 01 00:36:74
  TRACK 32 AUDIO
    TITLE "2:cjc115_3267"
    INDEX 01 00:38:16
  TRACK 33 AUDIO
    TITLE "0:"
    INDEX 01 00:39:37
  TRACK 34 AUDIO
    TITLE "3:cjc115_3268"
    INDEX 01 00:39:45
  TRACK 35 AUDIO
    TITLE "0:"
    INDEX 01 00:41:20
  TRACK 36 AUDIO
    TITLE "4:cjc115_3269"
    INDEX 01 00:41:22
  TRACK 37 AUDIO
    TITLE "0:"
    INDEX 01 00:45:45
  TRACK 38 AUDIO
    TITLE "2:cjc115_3270"
    INDEX 01 00:46:54
  TRACK 39 AUDIO
    TITLE "0:"
    INDEX 01 00:47:60
  TRACK 40 AUDIO
    TITLE "3:cjc115_3271"
    INDEX 01 00:47:68
  TRACK 41 AUDIO
    TITLE "0:"
    INDEX 01 00:49:31
  TRACK 42 AUDIO
    TITLE "4:cjc115_3272"
    INDEX 01 00:49:43
  TRACK 43 AUDIO
    TITLE "0:"
    INDEX 01 00:54:42
  TRACK 44 AUDIO
    TITLE "2:cjc115_3273"
    INDEX 01 00:55:50
  TRACK 45 AUDIO
    TITLE "0:"
    INDEX 01 00:56:51
  TRACK 46 AUDIO
    TITLE "3:cjc115_3274"
    INDEX 01 00:56:61
  TRACK 47 AUDIO
    TITLE "0:"
    INDEX 01 00:58:07
  TRACK 48 AUDIO
    TITLE "4:cjc115_3275"
    INDEX 01 00:58:15
  TRACK 49 AUDIO
    TITLE "0:"
    INDEX 01 01:02:01
  TRACK 50 AUDIO
    TITLE "2:cjc115_3276"
    INDEX 01 01:03:08
  TRACK 51 AUDIO
    TITLE "0:"
    INDEX 01 01:04:21
  TRACK 52 AUDIO
    TITLE "3:cjc115_3277"
    INDEX 01 01:04:31
  TRACK 53 AUDIO
    TITLE "0:"
    INDEX 01 01:05:50
  TRACK 54 AUDIO
    TITLE "4:cjc115_3278"
    INDEX 01 01:05:58
  TRACK 55 AUDIO
    TITLE "0:"
    INDEX 01 01:08:36
  TRACK 56 AUDIO
    TITLE "2:cjc115_3279"
    INDEX 01 01:09:46
  TRACK 57 AUDIO
    TITLE "0:"
    INDEX 01 01:10:59
  TRACK 58 AUDIO
    TITLE "3:cjc115_3280"
    INDEX 01 01:10:65
  TRACK 59 AUDIO
    TITLE "0:"
    INDEX 01 01:13:40
  TRACK 60 AUDIO
    TITLE "4:cjc115_3281"
    INDEX 01 01:13:44
  TRACK 61 AUDIO
    TITLE "0:"
    INDEX 01 01:17:55
  TRACK 62 AUDIO
    TITLE "2:cjc115_3282"
    INDEX 01 01:18:62
  TRACK 63 AUDIO
    TITLE "0:"
    INDEX 01 01:20:06
  TRACK 64 AUDIO
    TITLE "3:cjc115_3283"
    INDEX 01 01:20:16
  TRACK 65 AUDIO
    TITLE "0:"
    INDEX 01 01:21:33
  TRACK 66 AUDIO
    TITLE "4:cjc115_3284"
    INDEX 01 01:21:43
  TRACK 67 AUDIO
    TITLE "0:"
    INDEX 01 01:25:27
  TRACK 68 AUDIO
    TITLE "2:cjc115_3285"
    INDEX 01 01:26:32
  TRACK 69 AUDIO
    TITLE "0:"
    INDEX 01 01:27:48
  TRACK 70 AUDIO
    TITLE "3:cjc115_3286"
    INDEX 01 01:27:53
  TRACK 71 AUDIO
    TITLE "0:"
    INDEX 01 01:28:69
  TRACK 72 AUDIO
    TITLE "4:cjc115_3287"
    INDEX 01 01:28:74
  TRACK 73 AUDIO
    TITLE "0:"
    INDEX 01 01:31:43
